<?xml version="1.0" standalone="no"?>
<!DOCTYPE svg PUBLIC "-//W3C//DTD SVG 1.1//EN" "http://www.w3.org/Graphics/SVG/1.1/DTD/svg11.dtd" >
<svg xmlns="http://www.w3.org/2000/svg">
<metadata>
Created by FontForge 20120731 at Tue May 23 16:21:04 2017
 By admin
</metadata>
<defs>
<font id="iconfont" horiz-adv-x="1024" >
  <font-face 
    font-family="iconfont"
    font-weight="500"
    font-stretch="normal"
    units-per-em="1024"
    panose-1="2 0 6 3 0 0 0 0 0 0"
    ascent="896"
    descent="-128"
    x-height="792"
    bbox="-16 -212 1174 896"
    underline-thickness="0"
    underline-position="0"
    unicode-range="U+0078-E724"
  />
<missing-glyph 
 />
    <glyph glyph-name=".notdef" 
 />
    <glyph glyph-name=".notdef" 
 />
    <glyph glyph-name=".null" horiz-adv-x="0" 
 />
    <glyph glyph-name="nonmarkingreturn" horiz-adv-x="341" 
 />
    <glyph glyph-name="x" unicode="x" horiz-adv-x="1001" 
d="M281 543q-27 -1 -53 -1h-83q-18 0 -36.5 -6t-32.5 -18.5t-23 -32t-9 -45.5v-76h912v41q0 16 -0.5 30t-0.5 18q0 13 -5 29t-17 29.5t-31.5 22.5t-49.5 9h-133v-97h-438v97zM955 310v-52q0 -23 0.5 -52t0.5 -58t-10.5 -47.5t-26 -30t-33 -16t-31.5 -4.5q-14 -1 -29.5 -0.5
t-29.5 0.5h-32l-45 128h-439l-44 -128h-29h-34q-20 0 -45 1q-25 0 -41 9.5t-25.5 23t-13.5 29.5t-4 30v167h911zM163 247q-12 0 -21 -8.5t-9 -21.5t9 -21.5t21 -8.5q13 0 22 8.5t9 21.5t-9 21.5t-22 8.5zM316 123q-8 -26 -14 -48q-5 -19 -10.5 -37t-7.5 -25t-3 -15t1 -14.5
t9.5 -10.5t21.5 -4h37h67h81h80h64h36q23 0 34 12t2 38q-5 13 -9.5 30.5t-9.5 34.5q-5 19 -11 39h-368zM336 498v228q0 11 2.5 23t10 21.5t20.5 15.5t34 6h188q31 0 51.5 -14.5t20.5 -52.5v-227h-327z" />
    <glyph glyph-name="11" unicode="&#xe606;" 
d="M922 -91l-294 294q75 87 71.5 203.5t-86.5 198.5q-86 87 -209 87t-209.5 -86.5t-86.5 -209.5t86.5 -209.5t209.5 -86.5q111 0 195 74l294 -294zM404 139q-106 0 -181.5 75.5t-75.5 181.5t75.5 181t181.5 75t181 -75t75 -181t-75 -181.5t-181 -75.5z" />
    <glyph glyph-name="gouwuche02" unicode="&#xe724;" 
d="M93 686q-9 0 -15 6t-6 15v21q0 8 6 14.5t15 6.5h42q52 0 88.5 -37t36.5 -89v-252v-189q0 -26 18.5 -44.5t44.5 -18.5h504q26 0 44.5 18.5t18.5 44.5v315q0 26 -18.5 44.5t-44.5 18.5h-441q-8 0 -14.5 6t-6.5 15v21q0 8 6.5 14.5t14.5 6.5h441q52 0 89 -37t37 -89v-315
q0 -52 -37 -89t-89 -37h-504q-52 0 -88.5 37t-36.5 89v441q0 26 -18.5 44.5t-44.5 18.5h-42v0zM386 224q-8 0 -14.5 6.5t-6.5 14.5v21q0 9 6.5 15t14.5 6h378q8 0 14.5 -6t6.5 -15v-21q0 -8 -6.5 -14.5t-14.5 -6.5h-378v0zM386 392q-8 0 -14.5 6t-6.5 15v21q0 9 6.5 15
t14.5 6h378q8 0 14.5 -6t6.5 -15v-21q0 -9 -6.5 -15t-14.5 -6h-378v0zM848 -6q26 0 44.5 -18.5t18.5 -44.5t-18.5 -44.5t-44.5 -18.5t-44.5 18.5t-18.5 44.5t18.5 44.5t44.5 18.5v0zM250 0q30 0 51.5 -21.5t21.5 -52t-21.5 -52t-51.5 -21.5t-51.5 21.5t-21.5 52t21.5 52
t51.5 21.5v0zM250 0z" />
    <glyph glyph-name="fenxiang" unicode="&#xe602;" 
d="M576 782l398 -398l-398 -398v216q-21 1 -43 1q-50 0 -101.5 -7t-116 -24.5t-133.5 -54t-132 -88.5q2 9 5 24.5t18.5 61t37 88.5t63.5 98.5t94 99.5t132.5 82t175.5 56v243zM576 831q-10 0 -19 -4q-14 -6 -22 -18t-8 -27v-203q-83 -20 -154.5 -54.5t-123 -77t-87.5 -83.5
t-65 -86q-35 -56 -59 -118t-29 -86t-7 -38q-3 -15 4 -29t20 -21q12 -6 24 -6q18 0 32 11q192 160 445 163v-168q0 -15 8 -27t22 -18q9 -4 19 -4q20 0 35 15l398 397q14 15 14 35t-14 35l-398 397q-15 15 -35 15v0z" />
    <glyph glyph-name="jia" unicode="&#xe639;" 
d="M512 -212q-104 0 -199 40.5t-163.5 109t-109 163.5t-40.5 199t40.5 199t109 163.5t163.5 109t199 40.5q13 0 22.5 -9.5t9.5 -22.5t-9.5 -22.5t-22.5 -9.5q-185 0 -316.5 -131.5t-131.5 -316.5t131.5 -316.5t316.5 -131.5t316.5 131.5t131.5 316.5q0 106 -47 200t-132 158
q-11 8 -13 21t6 23.5t21.5 12.5t23.5 -6q98 -74 151.5 -181t53.5 -228q0 -104 -40.5 -199t-109 -163.5t-163.5 -109t-199 -40.5zM800 332q0 -13 -9.5 -22.5t-22.5 -9.5h-224v-256q0 -13 -9.5 -22.5t-22.5 -9.5t-22.5 9.5t-9.5 22.5v256h-224q-13 0 -22.5 9.5t-9.5 22.5
t9.5 22.5t22.5 9.5h224v224q0 13 9.5 22.5t22.5 9.5t22.5 -9.5t9.5 -22.5v-224h224q13 0 22.5 -9.5t9.5 -22.5z" />
    <glyph glyph-name="xiangji" unicode="&#xe642;" horiz-adv-x="1174" 
d="M1074 -128h-974q-41 0 -70.5 29.5t-29.5 70.5v649q0 42 29.5 71t70.5 29h236l15 121q3 22 22.5 38t44.5 16h332q25 0 45 -16t23 -38l17 -121h239q41 0 70.5 -29t29.5 -71v-649q0 -41 -29.5 -70.5t-70.5 -29.5zM1124 621q0 21 -14.5 35.5t-35.5 14.5h-175h-57h-58l-24 162
q-1 5 -6.5 9t-11.5 4h-321q-6 0 -11.5 -4t-5.5 -9l-18 -162h-55h-56h-175q-21 0 -35.5 -14.5t-14.5 -35.5v-649q0 -21 14.5 -35.5t35.5 -14.5h974q21 0 35.5 14.5t14.5 35.5v649zM600 22q-114 0 -194.5 80.5t-80.5 194t80.5 194t194.5 80.5t194 -80.5t80 -194t-80 -194
t-194 -80.5zM599 522q-93 0 -158.5 -66t-65.5 -159t65.5 -159t158.5 -66t159 66t66 159t-66 159t-159 66zM654 127q-19 -3 -38 -3q-8 0 -13 5t-5 11.5t5 11.5t13 5q16 0 31 3q7 2 13 -2t7.5 -11t-2.5 -12.5t-11 -7.5zM536 142q-4 0 -8 2q-47 24 -75 67.5t-28 95.5
q0 7 5 11.5t12.5 4.5t12.5 -4.5t5 -11.5q0 -43 22.5 -78.5t62.5 -54.5q6 -3 8 -10t-1 -13q-5 -9 -16 -9zM225 771h-150q-10 0 -17.5 7.5t-7.5 17.5t7.5 17.5t17.5 7.5h150q10 0 17.5 -7.5t7.5 -17.5t-7.5 -17.5t-17.5 -7.5z" />
    <glyph glyph-name="jiantou" unicode="&#xe62f;" 
d="M419 219zM328.5 66.5q6.5 -6.5 16 -6.5t15.5 6l335 335q7 7 7 16t-7 16l-335 335q-6 7 -15.5 7t-16 -6.5t-6.5 -16t7 -15.5l319 -320l-319 -319q-7 -7 -7 -16t6.5 -15.5z" />
    <glyph glyph-name="jiantouarrow483" unicode="&#xe695;" 
d="M512 166q-22 0 -38 16l-329 329q-15 15 -15 37.5t15.5 38t37.5 15.5t38 -16l291 -291l291 291q16 16 38 16t37.5 -15.5t15.5 -38t-15 -38.5l-329 -328q-16 -16 -38 -16z" />
    <glyph glyph-name="cha" unicode="&#xe649;" horiz-adv-x="1031" 
d="M-16 290l9 -4zM868 89l-295 295l295 295q11 11 11 27.5t-11.5 28t-27.5 11.5t-27 -12l-295 -295l-295 295q-11 12 -27.5 12t-28 -11.5t-11.5 -28t12 -27.5l294 -295l-294 -295q-12 -11 -12 -27.5t11.5 -28t27.5 -11.5t28 12l295 295l295 -295q11 -12 27 -12t27.5 11.5
t11.5 28t-11 27.5z" />
    <glyph glyph-name="fenxiang1" unicode="&#xe6a2;" 
d="M738 487q-72 0 -120 54l-184 -106q8 -25 8 -47q0 -38 -18 -74l176 -101q22 35 58.5 55.5t79.5 20.5q67 0 115.5 -48.5t48.5 -116.5t-48.5 -116.5t-116 -48.5t-115.5 48.5t-48 116.5q0 6 1 18l-198 114l1 2q-45 -35 -100 -35q-67 0 -115.5 48.5t-48.5 116.5t48.5 116.5
t115.5 48.5q72 0 120 -54l183 105q-8 25 -8 47q0 69 48 117t116 48t116 -48t48 -116.5t-48 -116.5t-115 -48v0zM738 25q40 0 69 29t29 70t-29 70t-69.5 29t-69.5 -29t-29 -70t29 -70t70 -29v0zM278 487q-40 0 -69 -29t-29 -70t29 -70t69.5 -29t69.5 29t29 70t-29 70t-70 29
v0zM738 751q-41 0 -70 -29t-29 -70t29 -70t69.5 -29t69.5 29t29 70t-29 70t-69 29v0zM738 751z" />
    <glyph glyph-name="unie609" unicode="&#xe659;" 
d="M512 -128q-16 0 -44 26.5t-54.5 60t-55 74.5t-41.5 61t-18 28q-18 29 -36 59.5t-42 77.5t-42 89.5t-30.5 89.5t-12.5 82q0 102 50.5 188.5t137 137t188.5 50.5q115 0 210 -64q4 -3 6 -7t1.5 -9t-2.5 -9q-5 -7 -12.5 -8.5t-13.5 3.5q-85 57 -189 57q-137 0 -236 -95
q-98 -96 -103 -232v-12q0 -68 46.5 -174t106 -198t114 -162t73.5 -77q20 6 75 76.5t113.5 163.5t104 199.5t45.5 171.5q0 96 -50 177q-4 7 -2 14.5t8 11.5q4 2 9 2t9.5 -2t7.5 -6q27 -45 41 -95t14 -102q0 -44 -17.5 -102.5t-45.5 -117t-51 -99.5t-46 -79q-4 -5 -8 -11.5
t-15.5 -24t-22.5 -34t-27 -39t-30.5 -41t-31 -38t-30.5 -32.5t-27.5 -21.5t-23.5 -8.5v0zM512 364q-77 0 -131.5 54t-54.5 131t54.5 131.5t131.5 54.5t131.5 -54.5t54.5 -131.5q0 -30 -9.5 -58.5t-27 -51t-40 -40t-51 -26.5t-58.5 -9v0zM512 698q-40 0 -74.5 -20t-54.5 -54
t-20 -75q0 -61 43.5 -105t105.5 -44q40 0 74.5 20t54.5 54.5t20 75t-20 74.5t-54.5 54t-74.5 20z" />
    <glyph glyph-name="gouwudai001" unicode="&#xe62d;" 
d="M275 791v-16v16zM969 -35v1l-85 686q-4 40 -28.5 64t-61.5 24h-59q-19 57 -54 92q-61 61 -170 61q-108 0 -168 -61q-36 -35 -55 -92h-58q-37 0 -61 -24t-29 -64l-85 -684v-3q-5 -35 23.5 -62.5t65.5 -27.5h736q39 0 66.5 26t22.5 64zM379 796q45 46 133 46q87 0 132 -46
q22 -22 36 -56h-337q14 34 36 56zM880 -74h-736q-17 0 -28.5 10t-9.5 27l85 684q2 20 12 30.5t18 10.5l9 1h45q-10 -54 -11 -124q0 -11 7.5 -18.5t18.5 -7.5t18.5 7.5t7.5 18.5v0q0 72 11 124h369q11 -52 12 -124v0q0 -11 7.5 -18.5t18 -7.5t18 7.5t7.5 18.5q0 70 -11 124
h46q4 0 9.5 -1t16 -10.5t13.5 -28.5l85 -686q2 -17 -9.5 -27t-28.5 -10z" />
    <glyph glyph-name="shezhi" unicode="&#xe65f;" 
d="M240 63l-88 45q-24 12 -40 40t-14 55l7 100q5 81 0 162l-7 100q-2 27 14 55t40 40l88 45q71 35 137 80l81 56q22 15 54 15t54 -15l81 -56q66 -45 137 -80l88 -45q24 -12 40 -40t14 -55l-7 -100q-5 -81 0 -162l7 -100q2 -27 -14 -55t-40 -40l-88 -45q-71 -35 -137 -80
l-81 -56q-22 -15 -54 -15t-54 15l-81 56q-66 45 -137 80zM436 -106q32 -22 76 -22t76 22l81 56q64 43 132 78l88 44q34 17 56 56t20 78l-7 100q-5 78 0 156l7 100q2 39 -20 78t-56 56l-88 44q-68 35 -132 78l-81 56q-32 22 -76 22t-76 -22l-81 -56q-64 -43 -132 -78l-88 -44
q-34 -17 -56 -56t-20 -78l7 -100q5 -78 0 -156l-7 -100q-2 -39 20 -78t56 -56l88 -44q68 -35 132 -78zM624 377.5q0 49.5 -34.5 85t-82.5 35.5t-82.5 -35.5t-34.5 -85t34.5 -84.5t82.5 -35t82.5 35t34.5 84.5zM429 378q0 33 23 56.5t55 23.5t55 -23.5t23 -56.5t-23 -56.5
t-55 -23.5t-55 23.5t-23 56.5z" />
    <glyph glyph-name="shaixuan" unicode="&#xe6ea;" 
d="M513 896q-126 0 -233 -18.5t-169.5 -51t-62.5 -69.5q0 -50 16 -95t42.5 -78t59.5 -65.5t68 -58.5t68.5 -56t59.5 -59t42 -67t16 -79v-23v0v0q0 -60 1 -91q0 -1 -0.5 -1.5t-0.5 -1t0.5 -1t0.5 -1.5q0 -55 2.5 -88.5t8 -58.5t16.5 -37t26 -17t39 -5q67 0 80 52t13 273
q0 47 20.5 89t53.5 75t72.5 65t79 65.5t72.5 70.5t53.5 86.5t20.5 106.5q0 37 -62.5 69.5t-169.5 51t-233 18.5zM750 486q-38 -30 -57 -46.5t-49 -48t-45.5 -57t-27 -61.5t-11.5 -74q0 -84 -0.5 -121t-3 -76.5t-7.5 -58.5q-4 -16 -9 -19.5t-27 -3.5t-27 3.5t-9 19.5
q-8 31 -10 116h23q10 0 16.5 7t6.5 16.5t-6.5 16.5t-16.5 7h-23v46h23q10 0 16.5 7t6.5 16.5t-6.5 16.5t-16.5 7h-23q0 38 -12 74t-27 61.5t-45.5 57t-49.5 48t-56.5 46.5t-57 47t-46.5 44.5t-43.5 55t-25.5 57.5q60 -33 169.5 -53t239.5 -20t239.5 20t169.5 53
q-9 -30 -25.5 -57.5t-43.5 -55t-46.5 -44.5t-56.5 -47zM513 664q-173 0 -295.5 27t-122.5 65.5t122.5 66t295.5 27.5t295.5 -27.5t122.5 -66t-122.5 -65.5t-295.5 -27z" />
    <glyph glyph-name="pingjia" unicode="&#xe60f;" 
d="M894 649q0 26 -17 43.5t-41 17.5h-648q-24 0 -41 -17.5t-17 -43.5v-448q0 -26 17 -44t41 -18h246l78 -81l78 81h246q24 0 41 18t17 44v73v0q-1 8 -6.5 13.5t-13 5.5t-13 -5.5t-6.5 -13.5v0v-53q0 -17 -11.5 -29t-27.5 -12h-245l-59 -61l-59 61h-245q-16 0 -27.5 12
t-11.5 29v408q0 17 11.5 29t27.5 12h608q16 0 27.5 -12t11.5 -29v-194h1l-0.5 -1l-0.5 -1q0 -8 6 -14t14 -6t13.5 6t5.5 14v1v1v0v214v0zM704 375h-368q-7 0 -12 -5.5t-5 -13.5t5 -14t12 -6h368q8 0 13 6t5 14t-5 13.5t-13 5.5v0zM704 505h-368q-7 0 -12 -5.5t-5 -13.5
t5 -13.5t12 -5.5h368q8 0 13 5.5t5 13.5t-5 13.5t-13 5.5v0zM704 505z" />
    <glyph glyph-name="zhongxinzuoti" unicode="&#xe61e;" 
d="M910 385.5q-11 0.5 -19.5 -7t-9.5 -18.5q-8 -133 -98 -232t-219 -118q-111 -17 -213 31t-160 144l76 -19q11 -3 20.5 3t12 17t-3 20.5t-16.5 12.5l-133 33q-10 3 -19.5 -2.5t-12.5 -15.5l-43 -134q-4 -11 1 -21t16 -13q4 -2 8 -2q20 0 26 19l23 71q59 -94 156 -148.5
t207 -54.5q32 0 63 4q148 23 251 136.5t112 265.5q1 11 -6.5 19.5t-18.5 9zM935.5 690.5q-10.5 3.5 -20.5 -1.5t-13 -15l-24 -72q-65 114 -184 172t-248 39q-156 -24 -259.5 -143t-105.5 -279q0 -12 7.5 -20t19.5 -8v0q11 0 19 8t8 19q2 140 92 244t227 125q114 17 218 -35
t161 -153l-76 19q-11 3 -20.5 -3t-12 -17t3 -20.5t16.5 -12.5l133 -33q4 -1 7 -1q19 0 25 19l44 134q3 11 -2 21t-15.5 13.5z" />
    <glyph glyph-name="gouwuche" unicode="&#xe620;" 
d="M790 -62h-556q-27 0 -44 19q-18 19 -16 44l55 775q1 23 18.5 38.5t41.5 15.5h446q24 0 41.5 -15.5t18.5 -38.5l55 -776q2 -24 -16 -43q-17 -19 -44 -19zM289 790q-8 0 -14 -5t-6 -12l-55 -775q0 -8 5 -14q6 -6 15 -6h556q9 0 15 6q5 6 5 14l-55 775q0 7 -6 12t-14 5h-446
zM512 462q-68 0 -117 43t-49 105q0 10 10 10t10 -10q0 -53 43 -90.5t103 -37.5t102.5 37.5t42.5 90.5q0 10 10 10t10 -10q0 -62 -48.5 -105t-116.5 -43z" />
    <glyph glyph-name="guanjun" unicode="&#xe621;" 
d="M723 615l-82 -165q-14 -28 -46 -28h-166q-31 0 -45 28l-83 165q-5 11 -5 23v140q0 21 15 36t36 15h330q21 0 36 -15t15 -36v-140q0 -12 -5 -23zM512 219zM232 218.5q0 -115.5 82 -197.5t198 -82t198 82t82 197.5t-82 197.5t-198 82t-198 -82t-82 -197.5zM512 426
q-84 0 -144 -59.5t-60 -143.5t60 -144t144 -60t144 60t60 144t-60 143.5t-144 59.5zM518.5 570q-4.5 0 -8 3t-3.5 8v165q0 5 3.5 8.5t8 3.5t8 -3.5t3.5 -8.5v-165q0 -5 -3.5 -8t-8 -3zM605 404l-207 -350q51 -35 114 -35q84 0 144 60t60 144q0 58 -30.5 106.5t-80.5 74.5z
M512 8q-89 0 -152 63t-63 152t63 152t152 63t152 -63t63 -152t-63 -152t-152 -63zM512 415q-79 0 -135.5 -56.5t-56.5 -136t56.5 -135.5t135.5 -56t135.5 56t56.5 135.5t-56.5 136t-135.5 56.5zM529 332v-218h-36v175q-19 -18 -49 -27v35q14 4 31 13q16 10 27 22h27v0z
M542 332v-218h-36v175q-20 -18 -50 -27v35q14 4 32 13q16 10 27 22h27v0z" />
    <glyph glyph-name="gerenzhongxin" unicode="&#xe622;" 
d="M502 -64q-101 0 -187 52h-44q-6 1 -9 1q-49 3 -83.5 29.5t-49.5 72.5q-2 4 -4 13q-9 34 -8 76v19q4 67 29 154q3 10 7 21l1 4q3 7 8 21l2 3q5 11 11 22q6 13 13 24t15 24q7 11 17 25q17 23 36 46h1q34 39 73 69q26 20 53 35q7 4 15 1.5t11.5 -9.5t1.5 -14.5t-10 -11.5
q-23 -13 -48 -32q-34 -27 -67 -63q0 -1 -1 -1q-18 -20 -34 -43q-7 -10 -15 -22l-1 -1q-7 -11 -13 -22q-6 -9 -13 -22q-5 -10 -10 -21l-1 -3q-5 -10 -8 -19l-1 -3q-4 -10 -6 -18q-24 -84 -27 -146q-1 -9 -1 -17q0 -38 7 -66q1 -4 3 -11q24 -70 99 -75h8q28 -1 48 -1
q6 0 11 -3q8 -5 21.5 -12.5t50 -20t73.5 -16t87.5 7.5t95.5 41q7 4 14 3q45 -9 80 0q20 5 37 15q6 3 12 7q107 73 44 294q-3 11 -9 25l-3 9q-5 11 -8 18q0 1 -1.5 3.5t-1.5 3.5l-1 3q-5 10 -9 17q-2 3 -5 8l-1 2q-4 8 -10 18q-2 3 -6 10q-6 9 -12 17q-3 5 -7 9q-4 7 -14 18
l-6 8q-8 10 -17 19l-5 6q-101 103 -215 103h-3q-13 1 -28 0q-8 -1 -14 4t-7 13t4.5 14.5t13.5 6.5q18 2 35 0q130 0 241 -114l2 -2q2 -1 2 -2l2 -2q11 -11 18 -21l8 -8q10 -13 15 -19q2 -3 7 -10q6 -9 12 -19q3 -4 7 -11q5 -8 11 -18l1 -3q3 -4 5 -9q5 -8 10 -18l1 -3
q3 -7 4 -8q4 -9 8 -20l1 -3q1 -1 1.5 -3t1.5 -3q6 -16 9 -28q21 -73 24 -132.5t-9.5 -98.5t-30.5 -64t-43 -42q-7 -5 -15 -9q-21 -12 -46 -19q-38 -9 -89 -2q-79 -51 -172 -51zM694 618h-2q-8 1 -13 7t-5 14l10 133q1 11 -7.5 17t-18.5 2l-139 -55q-7 -3 -14 0l-139 55
q-10 4 -18.5 -2t-8.5 -17l11 -133q0 -8 -5 -14t-13 -7t-14 4.5t-7 13.5l-10 133q-3 32 23 51t57 7l131 -52l131 52q30 12 56.5 -7t23.5 -51l-10 -133q-1 -8 -6.5 -13t-12.5 -5zM750 192h-1q-50 5 -97 29t-78 53t-59 66.5t-40 59.5t-21 42q-40 -16 -72 -39.5t-49 -43t-30 -41
t-15.5 -29t-3.5 -12.5q-3 -10 -12.5 -7.5t-6.5 12.5q1 6 4.5 15t17.5 33t33 45.5t55 46.5t80 41q9 3 13 -5q2 -8 11 -25.5t35 -56.5t57 -71.5t79.5 -60.5t100.5 -33q10 -1 9 -10t-10 -9z" />
    <glyph glyph-name="jijun" unicode="&#xe623;" 
d="M724 616l-83 -165q-14 -29 -45 -29h-168q-31 0 -45 29l-83 165q-5 11 -5 23v142q0 21 14.5 36t36.5 15h332q22 0 37 -15t15 -36v-142q0 -12 -6 -23zM512 218zM231 217.5q0 -116.5 82.5 -199t198.5 -82.5t198.5 82.5t82.5 199t-82.5 199t-198.5 82.5t-198.5 -82.5
t-82.5 -199zM512 427q-85 0 -145 -60t-60 -145t60 -145t145 -60t145 60t60 145t-60 145t-145 60zM518.5 571q-4.5 0 -8 3.5t-3.5 7.5v167q0 4 3.5 7.5t8 3.5t8 -3.5t3.5 -7.5v-167q0 -5 -3.5 -8t-8 -3zM606 404l-209 -352q52 -35 115 -35q85 0 145 60t60 145q0 58 -30.5 107
t-80.5 75zM512 6q-89 0 -152.5 63.5t-63.5 152.5t63.5 152.5t152.5 63.5t152.5 -63.5t63.5 -152.5t-63.5 -152.5t-152.5 -63.5zM512 415q-80 0 -136.5 -56.5t-56.5 -136.5t56.5 -136.5t136.5 -56.5t136.5 56.5t56.5 136.5t-56.5 136.5t-136.5 56.5zM561 320q20 -17 20 -45
q0 -36 -37 -48q20 -6 30 -17q11 -13 11 -32q0 -31 -21 -50q-22 -20 -58 -20q-34 0 -55 17q-23 20 -26 57h37q1 -22 13 -33t31 -11q20 0 32 12q11 11 11 26q0 19 -11 28t-32 9h-16v27h16q19 0 29 8t10 25q0 15 -9 24q-10 8 -29 8t-29 -9q-11 -10 -13 -30h-36q3 33 25 52
q20 18 53 18q34 0 54 -16zM574 320q20 -16 20 -45q0 -36 -37 -48q20 -6 30 -17q11 -13 11 -32q0 -31 -21 -50q-23 -20 -58 -20q-34 0 -55 17q-23 20 -26 57h36q1 -22 14 -33q11 -11 30 -11q21 0 33 12q11 11 11 26q0 19 -11 28t-33 9h-15v27h15q20 0 30 8t10 25q0 15 -9 24
q-10 8 -29 8t-30 -9q-11 -10 -12 -30h-36q3 33 25 52q20 18 53 18q34 0 54 -16z" />
    <glyph glyph-name="huangguan" unicode="&#xe624;" 
d="M921 408q-19 4 -35.5 -6.5t-20.5 -29.5q-3 -15 3 -29q-19 -16 -46.5 -26.5t-50.5 -10.5q-30 0 -46.5 27.5t1.5 80.5h1q13 -3 24 4t14 20.5t-4 24.5t-20.5 14t-24.5 -4.5t-14 -20.5q-4 -18 10 -31q-51 -78 -117 -46q-31 15 -45 59.5t-3 93.5q18 1 32 13.5t19 31.5
q5 23 -8 43t-36.5 25t-43.5 -8t-25 -36q-4 -19 3.5 -36t23.5 -26q-9 -49 -40.5 -83.5t-65.5 -35.5q-32 -1 -56 19.5t-32 70.5q18 6 22 24q3 13 -4.5 24.5t-20.5 14t-24 -4.5t-14 -20.5t4 -24.5t21 -14v0h1q-6 -56 -32 -74t-53 -6q-22 9 -42.5 30t-31.5 43q12 11 15 25
q4 20 -6.5 36t-30 20.5t-35.5 -6.5t-20.5 -30t6.5 -35.5t30 -20.5q5 -1 12 -1q33 -53 49 -117.5t10 -121.5q37 0 126.5 -8t161.5 -23.5t157 -45t118 -44.5q19 55 60 107t93 87q6 -3 11 -4q19 -4 35.5 6.5t21 29.5t-6.5 35.5t-30 20.5zM462 215q72 -15 157 -44.5t119 -44.5
q18 55 59 107t93 87q6 -3 11 -4q20 -4 36 6.5t20.5 29.5t-6.5 35.5t-30 20.5t-35.5 -6.5t-20.5 -29.5q-3 -15 3 -29q-19 -16 -46.5 -26.5t-50.5 -10.5q-30 0 -46.5 27.5t1.5 80.5h1q13 -3 24 4t14 20.5t-4 24.5t-20.5 14t-24.5 -4.5t-14 -20.5q-4 -18 10 -31
q-51 -78 -117 -46q-31 15 -45 59.5t-3 93.5q18 1 32.5 13.5t18.5 31.5q5 23 -8 43t-36 25z" />
    <glyph glyph-name="kouhong-" unicode="&#xe625;" 
d="M615 -64h-206q-26 0 -44 18t-18 44v319q0 24 16.5 42t40.5 20v314q0 44 35 70l79 57q32 23 67 5q35 -19 35 -59v-388q24 -2 40.5 -19.5t16.5 -41.5v-319q0 -26 -18.5 -44t-43.5 -18zM409 338q-9 0 -15 -6t-6 -15v-319q0 -9 6 -15t15 -6h206q9 0 15 6t6 15v319q0 9 -6 15
t-15 6h-15q-9 0 -15 6t-6 14v408q0 15 -13 22q-12 6 -24 -2l-79 -56q-18 -14 -18 -37v-335q0 -8 -6 -14t-15 -6h-15zM579.5 41q-10.5 0 -10.5 10v223q0 10 10.5 10t10.5 -10v-223q0 -10 -10.5 -10z" />
    <glyph glyph-name="shouye-" unicode="&#xe626;" 
d="M839 -16h-653q-23 0 -39.5 16.5t-16.5 39.5v335h-21q-25 0 -35 23.5t7 41.5l405 365q10 10 26.5 10t27.5 -11l403 -363v-1h1q17 -18 7 -41.5t-35 -23.5h-21v-335q0 -23 -16.5 -39.5t-39.5 -16.5zM149 414q8 0 13.5 -5.5t5.5 -13.5v-355q0 -7 5.5 -12.5t12.5 -5.5h653
q7 0 12.5 5.5t5.5 12.5v355q0 8 5.5 13.5t13.5 5.5h39l-402 363l-403 -363h39zM609 40q-10 0 -10 10v171q0 14 -9.5 24t-23.5 10h-107q-14 0 -23.5 -10t-9.5 -24v-171q0 -10 -10 -10t-10 10v171q0 22 15.5 37.5t37.5 15.5h107q22 0 37.5 -15.5t15.5 -37.5v-171
q0 -10 -10 -10z" />
    <glyph glyph-name="jia1" unicode="&#xe627;" 
d="M940 364h-858q-8 0 -13.5 6t-5.5 14t5.5 13.5t13.5 5.5h858q8 0 13.5 -5.5t5.5 -13.5t-5.5 -14t-13.5 -6zM511 -64q-8 0 -13.5 5.5t-5.5 13.5v858q0 8 5.5 13.5t13.5 5.5t14 -5.5t6 -13.5v-858q0 -8 -6 -13.5t-14 -5.5z" />
    <glyph glyph-name="huangguan1" unicode="&#xe628;" 
d="M918 501.5q-19 4.5 -35.5 -6.5t-20.5 -30q-4 -14 3 -28q-20 -16 -47 -26.5t-51 -10.5q-18 0 -32 10.5t-20 34.5t8 62h1q13 -3 24.5 4.5t14 20.5t-5 24.5t-20.5 14t-24 -4.5t-14 -20q-4 -19 10 -31q-51 -78 -117 -46q-30 14 -44.5 58.5t-3.5 93.5q19 2 33 14t18 31
q5 23 -8 43t-36 25t-43 -8t-25 -36q-4 -19 3.5 -36t23.5 -26q-10 -49 -41 -83.5t-65 -35.5q-32 -1 -56 20t-32 70q18 6 22 24q3 13 -4 24.5t-20.5 14t-24.5 -4.5t-14 -20.5t4.5 -24.5t20.5 -14h0.5h0.5q-5 -55 -31 -73.5t-54 -6.5q-21 10 -41.5 30.5t-31.5 43.5q11 10 14 25
q5 19 -6 35.5t-30 20.5t-35.5 -6.5t-20.5 -29.5t6.5 -35.5t29.5 -20.5q6 -1 13 -1q32 -53 48.5 -117.5t10.5 -121.5q36 1 125.5 -7.5t161.5 -24t156.5 -44.5t117.5 -45q19 55 60 107t92 87q6 -3 12 -4q19 -4 35.5 6.5t20.5 29.5t-6.5 35t-29.5 20.5zM460 310
q72 -16 156.5 -45t117.5 -45q19 55 60 107t92 87q6 -3 12 -4q19 -5 35.5 6t20.5 30t-6.5 35t-29.5 20.5t-35.5 -6.5t-20.5 -30q-3 -14 3 -28q-19 -16 -46.5 -26.5t-50.5 -10.5q-19 0 -33 10.5t-19.5 34.5t7.5 62h1q13 -3 24.5 4.5t14 20.5t-4.5 24.5t-20.5 14t-24.5 -4.5
t-14 -20q-4 -19 10 -31q-51 -78 -117 -46q-30 14 -44.5 58.5t-2.5 93.5q18 2 32 14t18 31q5 23 -8 43t-36 25z" />
    <glyph glyph-name="xuanzhong" unicode="&#xe629;" 
d="M512 384zM65 384q0 -185 131 -316t316 -131t316 131t131 316t-131 316t-316 131t-316 -131t-131 -316zM475 197q-16 0 -27 11l-195 198q-12 11 -11.5 27t11.5 27t27 11t27 -11l168 -170l267 270q12 11 27.5 11t27 -11t11.5 -27t-11 -27l-295 -298q-11 -11 -27 -11z" />
    <glyph glyph-name="yajun" unicode="&#xe62a;" 
d="M724 616l-83 -165q-14 -28 -45 -28h-168q-31 0 -45 28l-83 165q-5 11 -5 23v142q0 21 14.5 36t36.5 15h332q22 0 37 -15t15 -36v-142q-1 -12 -6 -23zM512 218zM230 217.5q0 -116.5 82.5 -199t199.5 -82.5t199.5 82.5t82.5 199t-82.5 199t-199.5 82.5t-199.5 -82.5
t-82.5 -199zM512 427q-85 0 -145 -60t-60 -145t60 -145t145 -60t145 60t60 145t-60 145t-145 60zM518.5 571q-4.5 0 -8 3.5t-3.5 7.5v167q0 5 3.5 8t8 3t8 -3t3.5 -8v-167q0 -4 -3.5 -7.5t-8 -3.5zM606 404l-209 -351q52 -36 115 -36q85 0 145 60t60 145q0 59 -30.5 107.5
t-80.5 74.5zM512 6q-89 0 -152.5 63.5t-63.5 153t63.5 153t152.5 63t152.5 -63.5t63.5 -152.5t-63.5 -153t-152.5 -63.5zM512 415q-80 0 -136.5 -56.5t-56.5 -136.5t56.5 -136.5t136.5 -56.5t136.5 56.5t56.5 136.5t-56.5 136.5t-136.5 56.5zM561 317q20 -18 20 -47
q0 -28 -21 -52q-13 -13 -46 -35t-41 -39h108v-32h-153q0 34 22 59q12 13 51 40q20 14 30 24q14 17 14 35t-9 27q-10 8 -29 8q-20 0 -30 -13t-11 -39h-36q0 36 21 59q22 24 57 24q32 0 53 -19zM574 317q20 -18 20 -47q0 -28 -22 -52q-12 -13 -45 -35q-34 -22 -41 -39h108v-32
h-153q0 34 22 59q12 13 51 40q19 14 30 24q14 17 14 35t-10 27q-9 8 -28 8q-20 0 -30 -13q-11 -13 -12 -39h-35q0 36 21 59q22 24 57 24q32 0 53 -19z" />
    <glyph glyph-name="shouye" unicode="&#xe62b;" 
d="M920 493q-19 4 -35.5 -6.5t-20.5 -29.5q-3 -15 3 -29q-19 -16 -46.5 -26.5t-50.5 -10.5q-30 0 -46.5 27.5t1.5 80.5l1 -1q13 -2 24.5 5t14 20.5t-4.5 24.5t-20.5 14t-24.5 -4.5t-14 -20.5q-4 -18 10 -31q-51 -78 -116 -46q-31 15 -45.5 59t-2.5 93q18 2 32 14.5t18 30.5
q5 23 -8 43t-36 25t-43 -8t-25 -36q-4 -18 3.5 -35t23.5 -26q-9 -49 -40.5 -84t-65.5 -36q-32 0 -56 20.5t-31 69.5q17 6 22 24q2 14 -5 25t-20.5 14t-24.5 -4.5t-14 -20.5t4.5 -24.5t20.5 -14.5h0.5h0.5q-5 -55 -31 -73t-54 -6q-21 9 -41.5 29.5t-31.5 43.5q11 10 15 25
q4 19 -7 35.5t-30 20.5t-35.5 -6.5t-20.5 -29.5t6.5 -35.5t30.5 -20.5q5 -1 12 -1q32 -53 48.5 -117.5t10.5 -121.5q36 1 125.5 -7.5t161.5 -24t157 -44.5t118 -45q18 55 59 107t93 87q6 -3 11 -4q19 -5 35.5 6t20.5 30t-6.5 35.5t-29.5 20.5zM462 301q72 -16 157 -45
t118 -45q18 55 59 107t93 87q6 -3 11 -4q19 -4 35.5 6.5t20.5 29.5t-6.5 35.5t-29.5 20.5t-35.5 -6.5t-20.5 -29.5q-3 -15 3 -29q-19 -16 -46.5 -26.5t-50.5 -10.5q-30 0 -46.5 27.5t1.5 80.5l1 -1q13 -3 24.5 4.5t14 20.5t-4.5 24.5t-20.5 14.5t-24.5 -4.5t-14 -20.5
q-4 -18 10 -31q-51 -78 -116 -46q-31 15 -45.5 59t-2.5 93q18 2 32 14t18 31q5 23 -8 43t-36 25z" />
    <glyph glyph-name="daifahuo" unicode="&#xe62c;" 
d="M495 281h-307q-51 0 -87.5 36.5t-36.5 87.5v210q0 51 36.5 87t87.5 36h307q51 0 87.5 -36t36.5 -87v-210q0 -51 -36.5 -87.5t-87.5 -36.5zM188 703q-36 0 -62 -26t-26 -62v-210q0 -37 26 -63t62 -26h307q37 0 63 26t26 63v210q0 36 -26 62t-63 26h-307zM307 135h-63
q-34 0 -58 24.5t-24 58.5v89h35v-89q0 -20 14 -33.5t33 -13.5h63v-36zM496 170h136v-35h-136v35zM877 135h-41q-7 0 -12 5t-5 12.5t5 12.5t12 5h41q20 0 33.5 14t13.5 34v151q0 20 -14 34l-140 140q-14 14 -33 14h-136q-7 0 -12 5t-5 12.5t5 12.5t12 5h136q34 0 58 -24
l141 -140q24 -25 24 -59v-151q0 -34 -24.5 -58.5t-58.5 -24.5zM406.5 30q-44.5 0 -75.5 31t-31 75.5t31 75.5t75.5 31t75.5 -31t31 -75.5t-31 -75.5t-75.5 -31zM406.5 208q-29.5 0 -50.5 -21t-21 -50.5t21 -50.5t50.5 -21t50.5 21t21 50.5t-21 50.5t-50.5 21zM731 30
q-44 0 -75.5 31t-31.5 75.5t31.5 75.5t75.5 31t75.5 -31t31.5 -75.5t-31.5 -75.5t-75.5 -31zM731 208q-30 0 -51 -21t-21 -50.5t21 -50.5t51 -21t51 21t21 50.5t-21 50.5t-51 21zM836 338h-146q-7 0 -12 5t-5 13v129q0 8 5 13t12.5 5t12.5 -5t5 -13v-112h129q7 0 12 -5
t5 -12.5t-5 -12.5t-13 -5z" />
    <glyph glyph-name="daipingjia" unicode="&#xe62e;" 
d="M340 18q-6 0 -12 2q-15 7 -15 25v91q0 5 -3 8t-8 3h-159q-32 0 -55 23t-23 55v447q0 32 23 55t55 23h738q32 0 55 -23t23 -55v-447q0 -32 -23 -55t-55 -23h-379q-4 0 -7 -3l-138 -120q-7 -6 -17 -6zM143 714q-17 0 -29.5 -12t-12.5 -30v-447q0 -18 12.5 -30t29.5 -12h159
q19 0 33 -13.5t14 -33.5v-71l123 106q13 12 30 12h379q17 0 29.5 12t12.5 30v447q0 18 -12.5 30t-29.5 12h-738zM731 555h-402q-7 0 -12.5 5t-5.5 12.5t5.5 13t12.5 5.5h402q7 0 12.5 -5.5t5.5 -13t-5.5 -12.5t-12.5 -5zM546 438h-218q-8 0 -13 5.5t-5 13t5 12.5t13 5h218
q8 0 13 -5t5 -12.5t-5 -13t-13 -5.5zM729 322h-401q-8 0 -13 5t-5 12.5t5 13t13 5.5h401q8 0 13 -5.5t5 -13t-5 -12.5t-13 -5z" />
    <glyph glyph-name="daishouhuo" unicode="&#xe630;" 
d="M875 412h-726q-35 0 -60 25.5t-25 60.5v8q0 36 25 61t60 25h726q35 0 60 -25t25 -61v-8q0 -35 -25 -60.5t-60 -25.5zM149 556q-20 0 -34.5 -14.5t-14.5 -35.5v-8q0 -21 14.5 -35.5t34.5 -14.5h726q20 0 34.5 14.5t14.5 35.5v8q0 21 -14.5 35.5t-34.5 14.5h-726zM802 -18
h-580q-38 0 -64 26.5t-26 63.5v358q0 8 5 13t13 5h724q8 0 13 -5t5 -13v-358q0 -37 -26 -63.5t-64 -26.5zM168 412v-340q0 -22 15.5 -38t38.5 -16h580q23 0 38.5 16t15.5 38v340h-688zM435 585q-36 0 -70 19q-42 25 -59 65t2 72t62 37.5t85 -18.5t58.5 -64.5t-1.5 -72.5
q-23 -38 -77 -38zM384 744q-33 0 -45 -21q-11 -19 2 -45t42 -42.5t58 -15t39.5 20.5t-2.5 45t-41 43q-26 15 -53 15zM590 586h-3q-48 2 -71.5 33t-5.5 74q15 36 54 64q38 29 81.5 28.5t66 -30t10.5 -71.5t-51 -71q-37 -27 -81 -27zM645 750q-31 0 -60 -22q-31 -22 -42 -49
q-10 -24 1 -39q13 -17 44 -18q33 -1 61 20q27 20 36.5 47t-3.5 45q-12 16 -37 16zM424.5 63q-7.5 0 -13 5.5t-5.5 12.5v267q0 7 5.5 12.5t13 5.5t12.5 -5.5t5 -12.5v-267q0 -7 -5 -12.5t-12.5 -5.5zM599.5 63q-7.5 0 -12.5 5.5t-5 12.5v267q0 7 5 12.5t12.5 5.5t13 -5.5
t5.5 -12.5v-267q0 -7 -5.5 -12.5t-13 -5.5z" />
    <glyph glyph-name="daifukuan" unicode="&#xe631;" 
d="M656 84h-401q-79 0 -135 56t-56 136v216q0 80 56 136t135 56h401q79 0 135.5 -56t56.5 -136v-216q0 -80 -56.5 -136t-135.5 -56zM255 649q-65 0 -111 -46t-46 -111v-216q0 -65 46 -111t111 -46h401q65 0 111 46t46 111v216q0 65 -46 111t-111 46h-401v0zM864 290h-259
q-39 0 -67.5 28.5t-28.5 68t28.5 68t67.5 28.5h259q40 0 68 -28.5t28 -68t-28 -68t-68 -28.5zM605 448q-25 0 -43 -18t-18 -43.5t18 -43.5t43 -18h259q26 0 44 18t18 43.5t-18 43.5t-44 18h-259zM627 379zM598 379q0 -12 8.5 -20.5t20.5 -8.5t20.5 8.5t8.5 20.5t-8.5 20.5
t-20.5 8.5t-20.5 -8.5t-8.5 -20.5z" />
    <glyph glyph-name="dizhiguanli" unicode="&#xe632;" 
d="M512 -64q-25 0 -42 24l-238 305q-2 2 -5 8l-1 3q-62 90 -62 201q0 96 46.5 177.5t127 129t174.5 48t174.5 -47.5t127 -129.5t46.5 -177.5q0 -111 -62 -203v0l-1 -1q-2 -4 -4 -7l-239 -307q-17 -23 -42 -23zM512 780q-123 0 -210 -89t-87 -214q0 -96 53 -174q1 0 2 -2
l3 -5l237 -305q1 -2 2 -2l0.5 0.5l0.5 0.5l239 306q0 1 1 3t2 3l1 1q53 78 53 173q0 126 -87 215t-210 89zM512 361q-49 0 -83 35.5t-34 85t34.5 84.5t82.5 35t82.5 -35t34.5 -84.5t-34 -85t-83 -35.5zM512 336q-59 0 -101 42.5t-42 103t42 103t101 42.5t101 -42.5t42 -103
t-42 -103t-101 -42.5zM512 576q-38 0 -65 -28t-27 -67t27 -66.5t65 -27.5t65 27.5t27 66.5t-27 67t-65 28z" />
    <glyph glyph-name="fankuisvg" unicode="&#xe633;" 
d="M838 758h-652q-51 0 -87 -36t-36 -86v-504q0 -50 36 -86t87 -36h652q51 0 87 35.5t36 86.5v504q0 51 -36 86.5t-87 35.5zM639 432l277 217q1 -7 1 -13v-504q0 -15 -6 -29zM189 714h646q39 0 63 -30l-391 -301l-381 301q24 30 62 30h1zM112 103q-5 15 -5 30v503q0 6 1 14
l277 -219zM186 54q-33 0 -52 15l283 338l77 -69q12 -10 25 0l88 69l282 -338q-19 -15 -51 -15h-652zM189 715h646q39 0 63 -30l-391 -301l-381 301q24 30 63 30z" />
    <glyph glyph-name="jian" unicode="&#xe634;" 
d="M939 364h-854q-9 0 -15 6t-6 14t6 14t15 6h854q9 0 15 -6t6 -14t-6 -14t-15 -6z" />
    <glyph glyph-name="fenxiang2" unicode="&#xe635;" 
d="M555 374q-26 0 -104 65t-102 101q-29 44 -27 92q3 51 39.5 86.5t87.5 35.5q57 0 106 -58q51 58 106 58q51 0 87.5 -35.5t38.5 -86.5q3 -48 -26 -92q-25 -38 -102.5 -102t-103.5 -64zM448 728q-39 0 -68.5 -28.5t-31.5 -69.5q-2 -38 23 -76q22 -34 94 -93.5t90 -60.5
q17 1 89 60.5t95 93.5q24 38 22 76q-2 41 -31.5 69.5t-68.5 28.5q-23 0 -48 -16.5t-34.5 -27.5t-13.5 -16q-4 -7 -10 -6q-7 0 -11 6v0q-7 9 -15.5 19.5t-32.5 25.5t-48 15zM649 234q-3 0 -6 1l-296 136q-24 12 -37.5 15.5t-36.5 2.5q-5 -1 -9 3t-4 9.5t3.5 9.5t8.5 4
q27 1 43.5 -3.5t42.5 -16.5l13 -6l283 -131q12 -5 6 -17q-3 -7 -11 -7zM558 24h-302q-5 0 -8.5 4t-3.5 9.5t3.5 9t8.5 3.5h302q35 0 64 18l302 180q10 7 8.5 18.5t-12.5 15.5l-22 7q-63 21 -123 -10q-188 -98 -257 -98q-109 0 -212 27q-5 1 -8 5.5t-2 9.5q3 13 16 10
q6 -2 31 -7t77.5 -12t97.5 -7q63 0 245 95q69 36 144 12l21 -8q27 -9 30 -37t-21 -43l-301 -180q-36 -22 -78 -22zM260 14h-182q-5 0 -8.5 3.5t-3.5 9.5v401q0 5 3.5 9t8.5 4h182q5 0 9 -4t4 -9v-401q0 -6 -4 -9.5t-9 -3.5zM92 40h155v375h-155v-375z" />
    <glyph glyph-name="dianpingchenggong" unicode="&#xe636;" 
d="M268 118v260h-132v-260q0 -27 19 -46.5t46.5 -19.5t47 19.5t19.5 46.5zM835 35h-539q-5 0 -8 3.5t-3 8.5t3 8t8 3h539q3 0 3 4v710q0 4 -3 4h-539q-4 0 -4 -4v-624q0 -5 -3 -8.5t-8 -3.5t-8.5 3.5t-3.5 8.5v624q0 12 8 20t19 8h539q11 0 19 -8.5t8 -19.5v-710
q0 -11 -8 -19t-19 -8zM331 35h-163q-5 0 -8.5 3.5t-3.5 8.5t3.5 8t8.5 3h163q5 0 8.5 -3t3.5 -8t-3.5 -8.5t-8.5 -3.5zM179 35q-47 0 -80 33t-33 80v289q0 11 8 19t20 8h187q5 0 8 -3.5t3 -8.5v-304q0 -47 -33 -80t-80 -33zM94 441q-4 0 -4 -4v-289q0 -37 26 -63.5t63 -26.5
t63.5 26.5t26.5 63.5v293h-175zM757 238h-391q-4 0 -7.5 3.5t-3.5 8t3.5 8t7.5 3.5h391q4 0 7.5 -3.5t3.5 -8t-3.5 -8t-7.5 -3.5zM671 421h-305q-4 0 -7.5 3.5t-3.5 8.5t3.5 8.5t7.5 3.5h305q5 0 8 -3.5t3 -8.5t-3 -8.5t-8 -3.5zM725 604h-359q-4 0 -7.5 3.5t-3.5 8.5
t3.5 8.5t7.5 3.5h359q5 0 8.5 -3.5t3.5 -8.5t-3.5 -8.5t-8.5 -3.5zM744 182zM531 182q0 -88 62.5 -151t151 -63t151 63t62.5 151t-62.5 150.5t-151 62.5t-151 -62.5t-62.5 -150.5zM727 99q-5 0 -9 4l-93 94q-8 8 0.5 16.5t16.5 -0.5l85 -86l132 134q8 8 16.5 0t0.5 -16
l-141 -142q-3 -4 -8 -4z" />
    <glyph glyph-name="fukuanchenggong" unicode="&#xe637;" 
d="M352 54.5q0 -24.5 17 -41.5t41 -17t41.5 17t17.5 41t-17 41.5t-41.5 17.5t-41.5 -17t-17 -41.5zM101 702.5q0 -23.5 20 -34.5t39.5 0t19.5 34.5t-19.5 34.5t-39.5 0t-20 -34.5zM281 238q-60 315 -79 439q-8 52 -36 72q-9 6 -19.5 8.5t-15.5 2t-6 -0.5l-5 22q30 7 59 -13
q36 -25 46 -87q19 -124 78 -439zM128 651q-27 0 -46.5 19.5t-19.5 46.5t19.5 46t46.5 19t46 -19t19 -46t-19 -46.5t-46 -19.5zM127.5 759q-17.5 0 -30 -12.5t-12.5 -30t12.5 -30t30 -12.5t30 12.5t12.5 30t-12.5 30t-30 12.5zM866 129h-572q-25 0 -43 18t-18 43t18 43t43 18
l376 -1q5 0 8.5 -3t3.5 -8t-3.5 -8.5t-8.5 -3.5l-376 1q-16 0 -27 -11.5t-11 -27t11 -26.5t27 -11l572 -1q5 0 8.5 -3t3.5 -8t-3.5 -8t-8.5 -3zM828 228h-528q-5 0 -8.5 3.5t-3.5 8t3.5 8t8.5 3.5l528 -1q11 0 21 11t14 26v0l75 279q2 9 -5 18q-11 13 -29 13h-670
q-5 0 -8.5 3.5t-3.5 8.5t3.5 8t8.5 3h670q29 0 47 -22q14 -18 10 -38h-1l-75 -278q-6 -22 -21.5 -38t-35.5 -16zM949 563zM771 312q-5 0 -8.5 3.5t-3.5 8.5l1 206q0 5 3 8t8 3t8 -3t3 -8v-206q0 -5 -3 -8.5t-8 -3.5zM672.5 312q-4.5 0 -8 3.5t-3.5 8.5l1 206q0 5 3 8t8 3
t8 -3t3 -8v-206q0 -5 -3.5 -8.5t-8 -3.5zM573.5 312q-4.5 0 -8 3.5t-3.5 8.5v206q0 5 3.5 8t8 3t8 -3t3.5 -8v-206q0 -5 -3.5 -8.5t-8 -3.5zM475 313q-5 0 -8 3t-3 8v206q0 5 3.5 8t8 3t8 -3t3.5 -8v-206q0 -5 -3.5 -8t-8.5 -3zM377 313q-5 0 -8 3t-3 8v206q0 5 3.5 8.5
t8 3.5t8 -3.5t3.5 -8.5v-206q0 -5 -3.5 -8t-8.5 -3zM652 602l-202 1q-7 0 -11.5 5t-4.5 12v59q0 7 5 12t12 5h201q7 0 12 -5t5 -12v-59q0 -7 -5 -12.5t-12 -5.5zM676 597h-306v116q0 11 8 19.5t20 8.5h250q11 0 19.5 -8.5t8.5 -20.5v-115zM392 620h261v92q0 6 -5 6h-250
q-6 0 -6 -6v-92zM826 597h-173v73q0 11 8.5 19.5t20.5 8.5h115q12 0 20.5 -8.5t8.5 -19.5v-73zM676 620h127v49q0 6 -6 6h-115q-6 0 -6 -5v-50zM394 -14q-34 0 -58.5 24.5t-24.5 58.5t24.5 58t58.5 24t58 -24t24 -58.5t-24 -58.5t-58 -24zM394 128q-25 0 -42.5 -17.5
t-17.5 -42t17.5 -42t42 -17.5t42.5 17.5t18 42t-17.5 42t-42.5 17.5zM693 54q0 -34 29 -50.5t58 0t29 50.5t-29 51t-58 0t-29 -51zM734.5 -14q-34.5 0 -58.5 24t-24 58t24.5 58.5t58.5 24.5t58 -24.5t24 -58.5t-24 -58t-58.5 -24zM734.5 128q-24.5 0 -42 -17.5t-17.5 -42
t17.5 -42t42 -18t42 17.5t17.5 42.5t-17.5 42t-42 17.5zM732 201zM516 201.5q0 -89.5 63.5 -152.5t152.5 -63t152.5 63t63.5 152.5t-63.5 152.5t-152.5 63t-152.5 -63t-63.5 -152.5zM714 118q-5 0 -8 3l-94 96q-9 8 -0.5 16.5t16.5 -0.5l86 -87l134 135q8 9 16.5 0.5
t0.5 -16.5l-143 -144q-3 -3 -8 -3z" />
    <glyph glyph-name="shanchu1" unicode="&#xe638;" 
d="M897 757h-89h-88h-85q-4 0 -11 10l-2.5 3t-5.5 7.5t-5 6.5q-34 45 -98 45q-66 0 -101 -45q-3 -3 -7 -9t-7.5 -10.5t-3.5 -5.5l-1 -2h2h-43h-46.5h-47.5h-42.5h-43.5h-45q-10 0 -17 -7t-7 -17t7 -17t17 -7h45h43.5h42.5h48h46h43q21 0 37 21q1 1 8 11t9 13q22 27 64 27
q40 0 61 -27q3 -4 11 -16q22 -29 50 -29h85h88h89q10 0 17 7t7 17t-7 17t-17 7zM533 64v508q0 9 -7 16t-17 7t-17 -7t-7 -16v-508q0 -10 7 -17t17 -7t17 7t7 17zM894 543v11v6v3q0 10 -6 17t-16 7t-17.5 -7t-7.5 -17v-20v-22.5v-29.5v-82v-82v-16v-16q-1 -194 -1 -258
q0 -38 -18 -47q-9 -3 -25 -2h-3h-21h-27h-29h-88.5h-87.5h-19h-19q-64 -1 -124 -1t-105 0.5t-50 0.5q-36 0 -46 23q-5 11 -4 24v526q0 10 -6 17t-16 7t-18 -7t-8 -17v-520v-1.5v-1.5q-2 -25 8 -47q23 -51 90 -51q5 0 50 -0.5t105 -0.5t125 1h18.5h18.5h88h88h29.5h27.5h10
h6.5h2.5h-1q26 -1 45 7q23 10 37 34.5t14 55.5v258v16v16v81.5v82.5v29v23zM365 116v356q0 10 -7 17t-17 7t-17 -7t-7 -17v-356q0 -9 7 -16t17 -7.5t17 6.5t7 17zM724 512q0 10 -7 17t-17 7t-17 -7t-7 -17v-419q0 -10 7 -17t17 -7t17 7t7 17v419z" />
    <glyph glyph-name="wodefenxiang" unicode="&#xe63a;" 
d="M78 392h151v-371h-151v371zM236 8h-151q-9 0 -15 6t-6 14v371q0 8 6 14.5t15 6.5h151q8 0 14 -6t6 -15v-371q0 -8 -6 -14t-14 -6zM105 49h110v329h-109zM545 356q-31 0 -110.5 66t-104.5 105q-32 48 -29 99q3 56 43 95t95 39q56 0 106 -52q52 52 106 52q55 0 95 -39
t43 -95q3 -51 -28 -99q-26 -39 -105.5 -105t-110.5 -66zM547 407h1h-1zM439 709q-34 0 -59.5 -25t-27.5 -61q-2 -34 21 -68q19 -30 84 -84.5t88 -62.5q23 8 88 62.5t85 84.5q22 34 20 68q-2 35 -27.5 60.5t-59.5 25.5q-20 0 -41.5 -14.5t-31.5 -26t-12 -15.5q-7 -10 -21 -11
q-14 1 -21 12h-1q-5 8 -13 17t-29.5 23.5t-41.5 14.5zM639 216q-6 0 -11 3l-282 130q-50 23 -107 20q-10 -1 -18 6.5t-8.5 18t6.5 18.5t18 9q69 3 131 -26l281 -130q10 -4 13.5 -14t-0.5 -20q-7 -15 -23 -15zM549 8h-301q-11 0 -18.5 7.5t-7.5 18t7.5 18.5t18.5 8h301
q30 0 57 15l299 180q3 2 3 5.5t-4 4.5l-21 7q-59 20 -113 -8q-190 -100 -262 -100q-107 0 -214 27q-10 3 -15.5 12t-3 19.5t11.5 16t19 2.5q6 -2 30.5 -7t76 -11.5t95.5 -6.5q60 0 238 93q74 39 153 12l22 -7q34 -11 38 -47.5t-27 -55.5l-300 -180q-38 -23 -83 -23z" />
    <glyph glyph-name="tijiaochenggong" unicode="&#xe63b;" 
d="M549 658q-25 -18 -48.5 -20.5t-31 12t5 37.5t37.5 41t48 20.5t30.5 -12t-4.5 -37.5t-37 -41zM411 722q26 -18 37 -39t0.5 -32.5t-36.5 -6.5t-51.5 23t-36.5 38.5t-0.5 32t36 7t51.5 -22.5zM821 511h-731q-10 0 -17 7t-7 17v94q0 10 7 17t17 7h731q10 0 17 -7t7 -17v-94
q0 -10 -7 -17t-17 -7zM90 634q-5 0 -5 -5v-94q0 -5 5 -5h731q5 0 5 5v94q0 5 -5 5h-731zM757 66h-603q-10 0 -17 7t-7 17v416q0 10 7 17t17 7h603q10 0 17 -7t7 -17v-416q0 -10 -7 -17t-17 -7zM154 511q-5 0 -5 -5v-416q0 -5 5 -5h603q5 0 5 5v416q0 5 -5 5h-603zM406 644
h98v-568h-98v568zM514 66h-117v587h117v-587zM416 85h78v549h-78v-549zM417 640q-7 0 -15 1q-34 5 -67 28q-49 34 -54 72q-2 18 9 30q17 18 52 13.5t69 -28.5q49 -33 54 -71q2 -18 -9 -31q-13 -14 -39 -14zM330 766q-18 0 -25 -8q-6 -5 -5 -15q4 -30 46 -58q29 -20 58 -24.5
t38 6.5q5 6 4 15q-3 30 -46 58q-37 26 -70 26zM498 637q-22 0 -35 12q-12 11 -11 30q1 38 47 75q32 26 66.5 32.5t52.5 -10.5q12 -11 11 -30q-1 -38 -47 -75q-31 -24 -64 -32q-11 -2 -20 -2zM511 739q-39 -31 -40 -61q-1 -10 5 -15q12 -11 38 -5q29 6 56 28q39 31 40 61
q0 10 -6 15q-9 11 -37.5 4.5t-55.5 -27.5zM751 188zM543 187.5q0 -85.5 61 -146.5t147 -61t146.5 61t60.5 146.5t-60.5 146.5t-146.5 61t-147 -61t-61 -146.5zM734 107q-5 0 -9 3l-90 92q-8 8 0 16t16 0l83 -83l128 129q8 8 16 0.5t0 -16.5l-136 -138q-4 -3 -8 -3z" />
    <glyph glyph-name="tuihuo-" unicode="&#xe63c;" 
d="M636 -60h-466q-44 0 -75 31t-31 75v676q0 44 31 75t75 31h636q44 0 75.5 -31t31.5 -75v-456q0 -9 -6 -15t-14.5 -6t-14.5 6t-6 15v456q0 27 -19.5 46.5t-46.5 19.5h-636q-27 0 -46.5 -19.5t-19.5 -46.5v-676q0 -27 19.5 -46t46.5 -19h466q8 0 14 -6t6 -14.5t-6 -14.5
t-14 -6zM478.5 442.5q-8.5 -0.5 -14.5 5.5l-79 79q-6 6 -6 14.5t6 14.5t14.5 6t14.5 -6l79 -79q6 -6 6 -14.5t-6 -14t-14.5 -6zM498 442.5q-8 -0.5 -14 5.5t-6 14.5t6 14.5l78 79q6 6 14.5 6t14.5 -6t6 -14.5t-6 -14.5l-79 -78q-6 -6 -14 -6.5zM606 433h-236q-9 0 -14.5 6
t-5.5 14t6 14t14 6h236q9 0 15 -6t6 -14t-6 -14t-15 -6zM606 334h-236q-9 0 -14.5 6t-5.5 14.5t6 14.5t14 6h236q9 0 15 -6t6 -14.5t-6 -14.5t-15 -6zM488.5 196q-8.5 0 -14.5 6t-6 14v237q0 8 6 14t14.5 6t14 -6t5.5 -14v-237q0 -8 -5.5 -14t-14 -6zM841 -50h-93
q-9 0 -15 6t-6 14t6 14t15 6h93q33 0 56 23t23 55.5t-23 55.5t-56 23h-96q-8 0 -14 6t-6 14.5t6 14t14 5.5h96q49 0 84 -34.5t35 -84t-35 -84t-84 -34.5zM782.5 68q-8.5 0 -14.5 6l-79 79q-6 6 -6 14.5t6 14.5l79 78q6 6 14.5 6t14 -6t5.5 -14t-6 -14l-64 -65l64 -64
q6 -6 6 -14.5t-5.5 -14.5t-14 -6z" />
    <glyph glyph-name="wodedianping" unicode="&#xe63d;" 
d="M890 732l-43 43q-20 19 -47.5 19t-47.5 -19l-405 -404l-2 -2q-7 -5 -9 -14l-32 -117q-4 -13 4.5 -23.5t22.5 -9.5h7l137 25q10 1 16 9l2 2l397 397q19 19 19 46.5t-19 47.5zM366 714h-198q-33 0 -56.5 -24.5t-23.5 -59.5v-526q0 -35 23.5 -59.5t56.5 -24.5h227
q31 -43 59 -62.5t62 -19.5t61.5 19.5t58.5 62.5h204q33 0 56.5 24.5t23.5 59.5v294q0 11 -8 19.5t-19 8.5t-19 -8.5t-8 -19.5v-294q0 -11 -8 -19.5t-18 -8.5h-231l-8 -11q-50 -71 -85.5 -71t-85.5 71l-8 11h-254q-11 0 -18.5 8.5t-7.5 19.5v526q0 11 7.5 19.5t19.5 8.5h197
q11 0 19 8t8 19.5t-8 20t-19 8.5zM323 176h-4q-25 0 -41 20q-18 21 -11 48l33 119q4 16 16 26l2 2l413 412q27 27 66.5 27t67.5 -27l43 -44q28 -28 28 -67t-28 -67l-403 -404q-1 -2 -2 -3q-13 -13 -31 -16l-139 -25q-5 -1 -10 -1zM321 230h2l140 24l4 5l403 404q12 12 12 29
t-12 29l-43 44q-12 12 -29 12t-29 -12l-417 -416l-33 -119h2z" />
    <glyph glyph-name="wodehongbao" unicode="&#xe63e;" 
d="M609 268h-194q-10 0 -17.5 7.5t-7.5 17.5t7.5 17.5t17.5 7.5h194q15 0 22 -12.5t-0.5 -25t-21.5 -12.5zM609 174h-194q-10 0 -17.5 7.5t-7.5 17.5t7.5 17.5t17.5 7.5h194q10 0 17.5 -7.5t7.5 -17.5t-7.5 -17.5t-17.5 -7.5zM512 94q-10 0 -17.5 7.5t-7.5 17.5v235
q0 10 7.5 17t17.5 7t17.5 -7t7.5 -17v-235q0 -10 -7.5 -17.5t-17.5 -7.5zM512 329q-10 0 -17 7l-80 78q-7 7 -7.5 17t7 17.5t17.5 7.5t18 -7l80 -77q12 -12 5.5 -27.5t-23.5 -15.5zM512 329q-16 0 -22.5 15.5t5.5 27.5l80 77q11 10 24.5 6.5t17 -18t-6.5 -24.5l-80 -77
q-8 -7 -18 -7zM736 -63h-448q-57 0 -98 41t-41 99v503q0 11 8 19.5t19.5 8.5t20 -8.5t8.5 -19.5v-503q0 -35 24.5 -59.5t58.5 -24.5h448q34 0 58.5 24.5t24.5 59.5v475q0 11 8.5 19.5t20 8.5t19.5 -8.5t8 -19.5v-475q0 -58 -41 -99t-98 -41zM728 809l-447 -12
q-46 -1 -78 -35t-31 -80v-1q57 -50 146.5 -77t192 -24.5t190 35t142.5 84.5v1q-2 47 -35.5 78.5t-79.5 30.5zM512 552q-106 0 -200 31t-154 86q-9 9 -9 21q0 59 41 100t98 41h448q57 0 98 -41t41 -99q0 -13 -9 -22q-60 -55 -154 -86t-200 -31zM205 702q54 -45 135 -69.5
t172 -24.5t172 24.5t134 69.5q-4 31 -27.5 52t-54.5 21h-448q-31 0 -55 -21t-28 -52zM847 690h1h-1z" />
    <glyph glyph-name="xiedianping" unicode="&#xe63f;" 
d="M308 172q-19 0 -33 17q-15 18 -9 41l34 124q4 13 14 22l3 2l426 426q26 26 62.5 26t62.5 -26l45 -46q26 -25 26 -62t-26 -63l-419 -420q-11 -12 -27 -15l-144 -25q-6 -1 -12 -1h-3zM311 209h5l145 25q3 1 6 4l3 2l417 419q16 15 16 37t-16 37l-45 45q-15 15 -36.5 15
t-36.5 -15l-430 -429q-3 -2 -4 -5l-34 -124q-1 -4 2 -8t8 -3zM513 -62q-25 0 -44 16l-65 51q-9 7 -21 7h-227q-29 0 -50 21t-21 51v555q0 29 21 50t50 21h190q7 0 12.5 -5.5t5.5 -13t-5.5 -12.5t-12.5 -5h-190q-14 0 -24.5 -10.5t-10.5 -24.5v-555q0 -15 10.5 -25t24.5 -10
h227q25 0 44 -16l65 -51q21 -16 42 0l64 48q20 15 44 14l206 -3q16 0 25 10q11 10 11 25l-1 338q0 8 5.5 13.5t13 5.5t12.5 -5.5t5 -12.5l1 -339q0 -30 -21 -51t-51 -21l-206 3q-13 0 -22 -7l-64 -47q-19 -15 -43 -15z" />
    <glyph glyph-name="wodeyouhuiquan" unicode="&#xe640;" 
d="M932 88h-499v605h499v-204q-4 -1 -11 -3.5t-25 -12t-32 -21t-25.5 -31t-11.5 -42t11 -40.5t26.5 -27.5t31 -16t25.5 -8.5l11 -1v-198zM912 34h-800q-20 0 -34 14t-14 34v204v2v2q0 19 14 33t33 14q20 0 33.5 14t13.5 33t-13.5 33t-33.5 14q-19 0 -33 14t-14 33v2.5v2.5
v203q0 20 14 34t33 14h801q20 0 34 -14t14 -34v-204v-2v-2q0 -20 -14 -33.5t-34 -13.5q-19 0 -32.5 -14t-13.5 -33t13.5 -33t33 -14t33.5 -14t14 -33v-2.5v-2.5v-203q0 -20 -14 -34t-34 -14zM120 90h784v192q-39 3 -66.5 32.5t-27.5 69.5t27.5 69.5t66.5 32.5v192h-784v-192
q39 -3 66.5 -32.5t27.5 -69.5t-27.5 -69.5t-66.5 -32.5v-192zM442.5 93q-11.5 0 -19.5 8t-8 19v84q0 11 8 19.5t19.5 8.5t20 -8.5t8.5 -19.5v-84q0 -11 -8.5 -19t-20 -8zM442.5 315q-11.5 0 -19.5 8t-8 19v84q0 11 8 19t19.5 8t20 -8t8.5 -19v-84q0 -11 -8.5 -19t-20 -8z
M442.5 537q-11.5 0 -19.5 8t-8 19v84q0 11 8 19t19.5 8t20 -8t8.5 -19v-84q0 -11 -8.5 -19t-20 -8z" />
    <glyph glyph-name="yongjin" unicode="&#xe641;" 
d="M519 -64q-91 0 -174 35.5t-143 95.5t-95.5 143t-35.5 174q0 145 85 262q6 9 17.5 11t21 -5t11.5 -18.5t-5 -20.5q-74 -103 -74 -229q0 -106 52.5 -196.5t143 -143t196.5 -52.5t196.5 52.5t143 143t52.5 196.5t-52.5 196.5t-143 143t-196.5 52.5q-87 0 -165 -37
q-11 -4 -21.5 -0.5t-15.5 14t-1 21.5t14 16q90 42 189 42q91 0 174 -35.5t143 -95.5t95.5 -143t35.5 -174t-35.5 -174t-95.5 -143t-143 -95.5t-174 -35.5zM473 112q23 -4 46 -4q114 0 195 81t81 195q0 97 -67.5 176.5t-162.5 95.5q-23 4 -46 4q-114 0 -195 -81t-81 -195
q0 -97 67.5 -176.5t162.5 -95.5zM519 80q-25 0 -50 4q-125 21 -198 123.5t-52 226.5q6 34 19 66q29 70 88 119q73 60 167 68q38 3 77 -3q124 -21 197 -123.5t52 -226.5q-19 -111 -104.5 -182.5t-195.5 -71.5zM519 632q-11 0 -21 -1q-77 -6 -137 -56q-48 -39 -71 -96
q-11 -26 -15 -54q-18 -101 42 -185t161 -101t185 43t101 161t-43 185q-59 84 -161 101q-20 3 -41 3zM247 430v0v0zM602 378h-165q-9 0 -15 6t-6 15t6 15t15 6h165q12 0 18 -10.5t0 -21.5q-6 -10 -18 -10zM602 298h-165q-9 0 -15 6.5t-6 15t6 14.5t15 6h165q8 0 14 -6
t6 -14.5t-6 -15t-14 -6.5zM519 230q-9 0 -15 6.5t-6 14.5v199q0 9 6 15t15 6t15 -6t6 -15v-199q0 -8 -6 -14.5t-15 -6.5zM519 429q-8 0 -14 6l-68 66q-6 6 -6.5 15t5.5 15t15 6t15 -6l68 -65q10 -10 5 -23.5t-20 -13.5zM519 429q-14 0 -19 13.5t5 23.5l68 66q9 8 20.5 5
t14.5 -15t-6 -21l-68 -66q-6 -6 -15 -6z" />
    <glyph glyph-name="anniu-xiedianping" unicode="&#xe643;" 
d="M835 650q-7 27 -33 40q-13 6 -28 6q-10 0 -20 -3v0l-98 -38q-50 78 -118 140q-12 8 -25.5 8t-25.5 -8q-69 -63 -119 -140l-53 21l291 -516q62 16 113.5 54t85.5 94q43 78 50.5 168t-20.5 174zM888 153q0 15 -11 15q-51 0 -125 -20t-102 -58l80 -132q26 -5 51 2t48 28
t38.5 63t20.5 102zM503 139h-9q-92 0 -172.5 45.5t-128.5 123.5q-45 82 -53.5 176t21.5 182q10 35 43 51.5t67 2.5l80 -32q49 72 114 131l1 1q16 12 36.5 12t36.5 -12l2 -1q65 -59 113 -131l109 37q20 1 38 -8q33 -17 43 -52q29 -87 21 -181t-53 -176q-48 -78 -127 -123
t-170 -46h-12zM240 687q-11 0 -19 -4q-18 -9 -23 -28q-28 -82 -20.5 -167.5t48.5 -160.5q42 -69 114 -109t153 -40q7 0 10 -1h11q82 1 152 41t113 110q40 74 47.5 159.5t-19.5 166.5q-5 20 -23 28q-16 8 -34 2h-1l-110 -43l-9 13q-48 75 -114 135q-13 9 -27 0
q-66 -60 -114 -135l-9 -13l-109 43q-9 3 -17 3zM272 -52q-12 0 -24 3q-20 4 -38 14.5t-39 32.5t-35.5 64.5t-18.5 100.5v2q0 20 9.5 27t20.5 7q32 0 77.5 -7.5t97.5 -30t72 -55.5q24 -40 -2 -88q-16 -31 -49.5 -50.5t-70.5 -19.5zM156 160q6 -73 32 -118t67 -54
q32 -6 61.5 9t41.5 39q15 29 2 51q-19 32 -84.5 51.5t-119.5 21.5zM752 -64q-37 0 -70 19.5t-50 51.5q-26 47 -2 87q20 33 72.5 55.5t97.5 30t77 7.5q7 0 12.5 -1.5t11.5 -10t6 -22.5v-1q-4 -58 -18.5 -100.5t-35 -65t-38.5 -33t-37 -14.5q-12 -3 -26 -3zM868 149
q-54 -3 -119.5 -22.5t-84.5 -51.5q-14 -22 2 -50q13 -25 43 -40t61 -8q41 8 66.5 53t31.5 119z" />
    <glyph glyph-name="anniu-bangdan" unicode="&#xe644;" 
d="M754 94h-146l45 -81h101q5 0 9 1q15 4 24.5 16.5t7.5 28t-13.5 25.5t-27.5 10zM941 552q-6 20 -23 30.5t-38 7.5q-20 -4 -32.5 -20t-11.5 -37q1 -20 18 -37q-1 -1 -3.5 -2.5t-4.5 -2.5q-102 -62 -153 -94q-10 -6 -15.5 -4.5t-10.5 11.5q-17 31 -50 91t-49 90
q-13 22 -36 65q27 18 33 41t-11 44q-15 18 -39 19.5t-41 -14.5q-17 -18 -16 -41q2 -32 34 -49q-32 -58 -95 -174l181 -328h193q10 0 14.5 3.5t7.5 13.5q15 51 45 154t45 154q1 1 4 10q43 0 57 44v18q-2 4 -3 7zM754 -3h-484q-19 0 -34 10.5t-21 28.5t0 36t21 28q17 10 35 10
q54 1 161 0h322q22 0 38 -14t18.5 -36t-10 -39.5t-34.5 -22.5q-5 -1 -12 -1zM352 78q-54 0 -80 -1q-9 0 -18 -5q-13 -9 -8 -26q5 -16 24 -16h484h4q10 2 15.5 9.5t4.5 17t-8 15.5t-16 6h-322h-80zM771 131h-517q-31 0 -39 29q-21 71 -36.5 125t-36.5 126q-2 6 -6 20l-6 21
l-5 15q-35 5 -53 37q-2 4 -5 12l-3 8v3v19v3l4 10q7 21 23.5 34t38.5 14q21 2 39.5 -9t27.5 -29q18 -35 -2 -69l26 -16q39 -24 77 -47q26 -16 44 -27q80 146 128 234q-27 21 -28 54q-2 31 21 53q22 22 53 20t50 -26q20 -24 16 -52q-4 -26 -29 -48q17 -31 29 -52l99 -181
q1 -1 1 -2q1 0 2 1q31 19 92 57l53 32q-9 15 -10 32q-1 27 15.5 48t42.5 26q27 4 49.5 -10t30.5 -40q1 -1 2 -4l1 -3v-4l-1 -23q-15 -49 -61 -55l-89 -307q-8 -29 -38 -29zM249 164h1.5h3.5h517h5v2q1 2 1 3l90 309q1 3 3 8v1l-76 -47q-81 -50 -93 -57q-16 -9 -28 -6t-21 20
l-99 180q-9 17 -36 65l-5 10l-6 -10q-91 -166 -137 -250q-7 -12 -18 -15q-12 -3 -25 4q-12 8 -45 28q-20 12 -77 47l-50 30l7 -25q10 -33 13 -41q7 -24 20 -68.5t16 -57.5q16 -54 37 -125q0 -2 1 -5h1zM97 530l1 -2q2 -7 3 -8q11 -21 37 -21h12v0l13 14q16 19 5 41
q-12 22 -36 20q-25 -1 -33 -26l-2 -5v-13zM890 574q-4 0 -7 -1q-14 -2 -23 -13t-8 -26q1 -14 14 -26l8 -9h1h11q31 0 41 31v12q-1 3 -1 5q-9 27 -36 27zM512 738q-15 0 -26 -10q-12 -12 -12 -28q1 -23 25 -35l15 -7l8 6q25 16 27 34q2 14 -9 27q-10 12 -26 13h-2z" />
    <glyph glyph-name="jiaoyichenggong" unicode="&#xe645;" 
d="M110 131h334l-23 406h-288zM248 24h577l-39 672h-498l-6 -93q-1 -10 9 -11t11 9l4 76h461l37 -633h-535l1 19q1 10 -9 11q-10 0 -10 -10zM63 87l29 493h370l29 -493h-428zM470 107l-27 453h-332l-27 -453h386zM714 599.5q0 18.5 -16.5 28t-32.5 0t-16 -28t16 -28t32.5 0
t16.5 28zM681.5 558q-17.5 0 -30 12t-12.5 29.5t12.5 30t30 12.5t29.5 -12.5t12 -30t-12 -29.5t-29.5 -12zM681.5 622q-9.5 0 -16 -6.5t-6.5 -16t6.5 -16t16 -6.5t16 6.5t6.5 16t-6.5 16t-16 6.5zM416.5 594q9.5 0 9.5 10v80q0 53 36 90t87 37t87 -37t36 -90v-80
q0 -10 9.5 -10t9.5 10v80q0 61 -41.5 104t-100.5 43t-101 -43t-42 -104v-80q1 -10 10.5 -10zM276 368q36 0 61 26t25 63v34q0 10 -9.5 10t-9.5 -10v-34q0 -29 -19.5 -49t-47 -20t-47.5 20t-20 49v34q0 10 -9.5 10t-9.5 -10v-34q0 -37 25 -63t61 -26zM748 150zM535 150
q0 -88 62.5 -150.5t150.5 -62.5t150.5 62.5t62.5 150.5t-62.5 150.5t-150.5 62.5t-150.5 -62.5t-62.5 -150.5zM730.5 68q-4.5 0 -8.5 3l-93 94q-8 8 0.5 16.5t16.5 -0.5l84 -85l132 133q9 8 17 0t0 -17l-140 -141q-4 -3 -8.5 -3z" />
    <glyph glyph-name="fankuichenggongchenggong" unicode="&#xe646;" 
d="M832 69h-731q-10 0 -16.5 6.5t-6.5 16.5v429q0 22 17 32l371 279l371 -279q19 -10 19 -28v-434q0 -9 -7 -15.5t-17 -6.5zM466 808l-360 -271v-1q-9 -5 -9 -15v-429q0 -4 4 -4h731q4 0 4 4v433q0 8 -8 11l-1 1v0zM835 72l-369 240l-368 -240l-11 17l379 246l380 -246z
M81 524l13 15l304 -257l-12 -14zM534 282l306 257l12 -15l-305 -256zM732 480l-197 -162l-72 43l-71 -44l-198 163v271q0 5 4 9t10 4h510q6 0 10 -4t4 -9v-271v0zM624 603h-302q-10 0 -10 9.5t10 9.5h302q10 0 10 -9.5t-10 -9.5zM624 513h-302q-10 0 -10 9.5t10 9.5h302
q10 0 10 -9.5t-10 -9.5zM736 147zM525 147q0 -87 62 -149t149 -62t148.5 62t61.5 149t-61.5 149t-148.5 62t-149 -62t-62 -149zM718.5 65q-4.5 0 -8.5 4l-92 93q-8 8 0 16t17 0l83 -85l131 132q8 8 16.5 0t0.5 -16l-139 -140q-4 -4 -8.5 -4z" />
    <glyph glyph-name="bianji" unicode="&#xe647;" 
d="M907 524v-468q0 -27 -20 -47t-47 -20h-656q-27 0 -47 20t-20 47v656q0 27 20 47t47 20h469q10 0 18 7.5t8 18.5t-8 18.5t-18 7.5h-469q-49 0 -84 -35t-35 -84v-656q0 -49 35 -84t84 -35h656q49 0 84 35t35 84v468q0 11 -7.5 19t-18.5 8t-18.5 -8t-7.5 -19zM208 130
q0 11 7.5 19t18.5 8h558q10 0 18 -8t8 -19t-7.5 -18.5t-18.5 -7.5h-558q-11 0 -18.5 8t-7.5 18zM865 786q8 8 19 8t19 -8q7 -7 7 -18t-8 -19l-411 -412q-8 -7 -19 -7t-18 7q-8 8 -8 19t8 18z" />
    <glyph glyph-name="fanhui" unicode="&#xe648;" 
d="M762 -55.5q-9 -8.5 -21.5 -8.5t-21.5 8l-457 420q-9 8 -9 20t9 20l457 420q9 8 21.5 8t21.5 -8.5t9 -20t-9 -19.5l-435 -400l435 -400q9 -8 9 -19.5t-9 -20z" />
    <glyph glyph-name="weixuanzhong" unicode="&#xe64a;" 
d="M511 -64q-91 0 -174 35.5t-143 95.5t-95.5 143t-35.5 174t35.5 174t95.5 143t143 95.5t174 35.5t174 -35.5t143 -95.5t95.5 -143t35.5 -174t-35.5 -174t-95.5 -143t-143 -95.5t-174 -35.5zM511 807q-115 0 -212.5 -56.5t-154 -154t-56.5 -212.5t56.5 -212.5t154 -154
t212.5 -56.5t212.5 56.5t154 154t56.5 212.5t-56.5 212.5t-154 154t-212.5 56.5z" />
  </font>
</defs>
</svg>
