<?xml version="1.0" standalone="no"?><!DOCTYPE svg PUBLIC "-//W3C//DTD SVG 1.1//EN" "http://www.w3.org/Graphics/SVG/1.1/DTD/svg11.dtd"><svg class="icon" width="200px" height="200.00px" viewBox="0 0 1024 1024" version="1.1" xmlns="http://www.w3.org/2000/svg"><path  d="M522.44898 932.928894c73.142857-83.701826 36.626423-174.662943 36.626423-174.662943s213.819119 61.923953 110.099248 263.094307c550.716219-311.049624 136.936627-776.304189 65.113641-828.989044 23.977658 52.684855 28.377229 141.336198-19.908056 184.341998C632.328249 66.103545 429.398067 2.309774 429.398067 2.309774c23.977658 160.364339-67.533405 334.917293-194.021053 466.574436 44.325671-46.085499-8.029216-108.119441-41.685929-169.273469C186.101826 415.759398 74.24275 508.150376 73.142857 626.608808c-2.639742 286.41203 240.986466 394.75145 240.986466 394.75145S437.317293 1030.269388 522.44898 932.928894z" fill="#fe547b" /></svg>