<?xml version="1.0" standalone="no"?><!DOCTYPE svg PUBLIC "-//W3C//DTD SVG 1.1//EN" "http://www.w3.org/Graphics/SVG/1.1/DTD/svg11.dtd"><svg class="icon" width="200px" height="200.00px" viewBox="0 0 1024 1024" version="1.1" xmlns="http://www.w3.org/2000/svg"><path d="M811.678588 885.567467c-9.584688-84.127487-51.313796-159.506362-118.535555-213.49724l-0.286538-0.230254-0.297795-0.215927c-4.416775-3.213316-11.598639-11.118689-10.188464-15.433129l0.301888-0.926131 0.0307-0.211833c0.439017-1.381521 2.744622-7.51957 9.868156-10.417694 1.187085-0.309051 2.430454-0.459484 3.784345-0.459484 10.158787 0 21.112716 8.340296 23.145088 10.580407l0.838123 0.940458 0.976275 0.787979c69.854836 56.431566 114.565984 139.206185 124.279614 229.082847L811.678588 885.567467zM178.404551 885.041466c4.743223-66.893264 25.90199-129.3718 61.616876-181.554419 38.936388-56.889003 92.918056-97.931444 156.107819-118.691104l32.54455-10.691952-29.604468-17.235246c-32.724659-19.050668-57.99729-45.392698-75.114851-78.29542-16.958942-32.595717-25.557122-70.816785-25.557122-113.601989 0-124.914091 99.757098-226.538801 222.375817-226.538801 59.337877 0 115.133943 23.526797 157.112748 66.246507 42.051463 42.795438 65.211901 99.723328 65.213948 160.297411 0 60.549523-23.150204 117.474342-65.185294 160.290247-41.961409 42.740177-97.737007 66.304838-157.051347 66.352936-0.605823 0-2.453991-0.147362-3.582745-0.148386-1.935153-0.002047-2.737459-0.181133-5.226244 0.113592l-2.443758 0.181133-6.275177 0.312121c-157.039067 3.63903-280.876594 128.224625-293.71758 292.964395L178.404551 885.042489zM520.773172 169.168825c-106.253319 0-192.696645 87.837128-192.696645 195.80251 0 107.936728 86.443326 195.750319 192.696645 195.750319 106.252296 0 192.695622-87.812567 192.695622-195.750319C713.468794 257.005952 627.025468 169.168825 520.773172 169.168825z" /></svg>