<?xml version="1.0" standalone="no"?><!DOCTYPE svg PUBLIC "-//W3C//DTD SVG 1.1//EN" "http://www.w3.org/Graphics/SVG/1.1/DTD/svg11.dtd"><svg class="icon" width="200px" height="200.00px" viewBox="0 0 1024 1024" version="1.1" xmlns="http://www.w3.org/2000/svg"><path d="M726.826252 932.694481c-48.764634 0-88.438215-39.672558-88.438215-88.440262 0-48.765657 39.673581-88.440262 88.438215-88.440262 48.76668 0 88.444355 39.674605 88.444355 88.440262C815.270607 893.022946 775.593955 932.694481 726.826252 932.694481zM726.826252 798.078551c-25.460882 0-46.174646 20.713764-46.174646 46.176692 0 25.460882 20.713764 46.175669 46.174646 46.175669s46.179762-20.714787 46.179762-46.175669C773.006014 818.792315 752.287133 798.078551 726.826252 798.078551z"  /><path d="M449.371102 932.694481c-48.765657 0-88.434122-39.672558-88.434122-88.440262 0-48.765657 39.668465-88.440262 88.434122-88.440262 48.76668 0 88.443331 39.674605 88.443331 88.440262C537.814434 893.022946 498.137783 932.694481 449.371102 932.694481zM449.371102 798.078551c-25.460882 0-46.170552 20.713764-46.170552 46.176692 0 25.460882 20.709671 46.175669 46.170552 46.175669 25.465998 0 46.179762-20.714787 46.179762-46.175669C495.551888 818.792315 474.8371 798.078551 449.371102 798.078551z"  /><path d="M357.43318 664.065348l-10.731412-4.812609c-10.988262-4.960988-12.371772-13.141298-15.72003-32.904411-1.743714-10.289344-4.091178-25.26543-6.979972-44.518936-4.843308-32.277124-11.30037-77.121472-19.186991-133.292795-13.422707-95.571682-26.521027-192.162578-26.653033-193.127556l0.467651-0.064468-1.816369-5.177929c-16.457834-46.963615-37.052894-101.466949-46.684252-121.82665-24.874527 0.26606-80.871889-0.203638-167.287027-1.38965l0.578168-42.258453c62.287625 0.848321 164.268274 1.948375 175.293375 1.307785 18.086937-2.293229 25.653263 15.004739 33.655518 33.311687 5.058203 11.567453 11.496845 27.66406 19.146059 47.843658 7.855922 20.709671 15.426341 41.639353 20.177552 54.937217 218.857567 0.676405 611.354845 1.802042 623.141286 1.51961 8.170077-0.208754 15.747659 4.126994 19.741623 11.355629 5.333472 9.652847 9.93835 17.989723-52.627614 211.386408-0.601704 1.842974-59.832713 184.717002-72.545246 203.75152-4.347005 6.503111-11.069103 10.211573-18.324344 10.227945-26.074865 0.727571-364.284727 0.781806-449.225281 0.784876L357.43318 664.065348zM322.030879 264.387529c16.70138 122.81721 41.630143 301.588803 50.51858 354.467127 139.089825-0.01228 370.154411-0.147356 425.461041-0.586354 21.7647-52.332902 97.010451-281.57498 113.931842-352.356047C811.12417 265.871323 426.277128 264.708847 322.030879 264.387529zM240.961492 128.115889c1.118474 0 2.288113-0.064468 3.490497-0.249687C243.831866 127.962393 242.667344 128.044258 240.961492 128.115889z" fill="yellow" /></svg>