<?xml version="1.0" standalone="no"?><!DOCTYPE svg PUBLIC "-//W3C//DTD SVG 1.1//EN" "http://www.w3.org/Graphics/SVG/1.1/DTD/svg11.dtd"><svg class="icon" width="200px" height="200.00px" viewBox="0 0 1024 1024" version="1.1" xmlns="http://www.w3.org/2000/svg"><path d="M703.513802 623.907743l-0.00307 0c0 0-21.941732-1.558495-21.280676-20.533662L682.230056 356.99367c0.01535-19.48682-17.326621-41.035602-42.558281-41.058115l-7.144724 0c4.39817-7.057743 7.141654-14.169721 7.144724-20.533662 0 0-14.282285-335.011007-106.392122-266.909979-63.735603 47.114041-141.520177 82.152045-148.956543 143.717216l0 123.192763c-0.00614 6.373151 1.752924 13.481036 5.131881 20.533662l-5.131881 0c-25.213241-0.027629-42.525536 21.562085-42.558281 41.058115l0 246.38041c-0.661056 15.510252-21.277606 20.533662-21.277606 20.533662-16.170285 0-21.280676 1.110287-21.280676 20.533662l0 307.972187c0 29.077246 18.391882 41.543162 41.328267 41.543162 22.933315 0 86.343507-0.475837 86.343507-0.475837L426.87832 706.033182c0-25.870204-42.555212-27.582195-42.555212 0l0 246.38041-21.280676 0c0 0-21.658276-0.520863-21.277606-20.533662 0.420579-16.044418 0-266.904863 0-266.904863s0.846274-20.533662 21.277606-20.533662 21.280676-33.833573 21.280676-20.533662L384.323109 377.531426c0 0 1.348718-20.057825 21.277606-20.537755 5.256724 0 204.805526 0.240477 212.792431 0 21.642926-0.638543 20.632923 22.24156 20.632923 22.24156s0.645706 222.925209 0.645706 244.668419c0 10.141988 8.721639 20.533662 21.286816 20.533662 13.576203 0 21.277606 20.529569 21.277606 20.529569l0 266.914072c0 13.158694-21.277606 20.533662-21.277606 20.533662l-42.558281 0c-27.143197 0-26.598798 41.067324 0 41.067324 18.949584 0 60.305481-0.031722 60.305481-0.031722 25.219381 0.031722 46.062082-16.370853 46.089711-41.035602L724.795501 644.441405C724.794477 625.053845 703.513802 623.907743 703.513802 623.907743zM597.11554 295.401894c-7.54279 18.355043-21.280676 20.533662-21.280676 20.533662s-116.507504 0.76134-127.675868 0c-11.162224-0.76134-21.280676-20.533662-21.280676-20.533662s-5.458315-140.876518 21.280676-164.254971c26.123984-22.844288 45.858444-36.351929 85.114516-61.59587 8.28878-7.995091 21.283746 0 21.283746 0s19.000749 28.936029 21.277606 41.062208C578.11479 122.748648 604.65833 277.042757 597.11554 295.401894z" /></svg>